<?xml version="1.0" encoding="UTF-8"?><svg id="Layer_1" xmlns="http://www.w3.org/2000/svg" viewBox="0 0 81.59 91.93"><defs><style>.cls-1{fill:none;}.cls-1,.cls-2{stroke-width:0px;}</style></defs><path class="cls-1" d="m42.19,58.18c0-.63,0-1.25,0-1.88-.05.32-.07.64-.07.97,0,.31.03.61.07.91Z"/><path class="cls-1" d="m59.5,13.87c.08-.16.15-.3.22-.45-.09.05-.19.1-.28.14,0,.05.01.1.01.16,0,.03.02.06.04.15Z"/><path class="cls-1" d="m39.6,68.5c-.09-.19-.21-.36-.33-.52v3.36c.56-.82.76-1.9.33-2.83Z"/><path class="cls-2" d="m42.2,60.01c0,.08,0,.16,0,.23.01.02.02.04.04.07-.01-.1-.03-.2-.04-.3Z"/><path class="cls-2" d="m42.99,65.98s.05.05.14.05c-.19-.5-.37-1.01-.57-1.51-.1-.24-.23-.47-.33-.71,0,.46,0,.91,0,1.37.27.24.52.51.76.8Z"/><path class="cls-2" d="m42.26,69.75c.03,3.8.05,7.59.08,11.39.28-.51.54-1.04.78-1.57.25-.57.42-1.2.54-1.82.36-1.76.55-3.55.49-5.34-.04-1.31-.16-2.63-.4-3.91-.2-1.06-.79-1.91-1.53-2.63,0,1.12.01,2.24.02,3.37.02.17.03.34,0,.51Z"/><path class="cls-2" d="m42.26,31.77c.93.86,1.02,2.19.19,3.01-.07.07-.14.11-.21.16,0,1.04-.01,2.07-.02,3.11,2.89.69,4.72,3.74,3.9,6.69-.46,1.67-1.58,2.71-3.28,2.99-.23.04-.45.05-.66.06,0,2.61,0,5.23.02,7.84.2-.7.51-1.36,1.02-1.9,1.76-1.88,4.64-1.38,5.74,1,.59,1.28.55,2.52-.31,3.66-.59.78-1.81,1.14-2.72.82-.96-.34-1.57-1.18-1.61-2.24-.05-1.36,1.22-2,1.92-1.76-.29.07-.67.09-.98.25-.67.33-.97,1.17-.78,1.98.35,1.47,2.11,2.2,3.36,1.43,1.58-.96,1.69-3.09.74-4.53-1.31-1.99-4.06-1.86-5.34-.4-.6.68-.92,1.49-1.04,2.36,0,.63,0,1.25,0,1.88.19,1.42.74,2.72,1.38,3.99.65,1.29,1.26,2.59,1.54,4.02.33,1.7.47,3.42.36,5.14-.09,1.44-.25,2.87-.38,4.31,0,.08-.04.16-.12.23.02-.16.03-.33.05-.49.32-2.48.28-4.96,0-7.46-.18-1.66-.88-3.09-1.63-4.51-.38-.71-.78-1.41-1.2-2.1,0,.49,0,.99.01,1.48.66,1.24,1.22,2.54,1.64,3.9.6,1.98.9,3.99.79,6.06-.14,2.77-.68,5.45-1.69,8.03-.36.9-.33,1.9.13,2.81.33.66.9,1.02,1.62,1.04.6.02,1.07-.3,1.37-.84.27-.47.3-.97-.01-1.43-.28-.41-.67-.64-1.18-.55-.6.11-.96.8-.67,1.31.16.28.39.45.72.41.3-.03.51-.22.51-.5,0-.22-.17-.45-.24-.61.25.06.4.27.35.64-.04.36-.41.65-.78.64-.56-.03-.97-.64-.83-1.23.21-.88,1.3-1.23,1.96-.63.46.42.72.94.56,1.58-.19.71-.61,1.21-1.33,1.38-1.17.27-2.28-.55-2.49-1.84-.07-.46-.05-.93-.08-1.43-.07.11-.15.22-.22.33.02,3.31.05,6.63.07,9.94,1.86-1.54,3.56-3.12,5.26-4.71.12-.11.18-.29.21-.45.37-2.21.73-4.43,1.07-6.64.57-3.69,1.12-7.38,1.7-11.07.68-4.33,1.41-8.66,2.09-12.99.74-4.66,1.41-9.33,2.2-13.99.16-.92-.05-1.51-.74-2.08-2.6-2.12-5.17-4.27-7.76-6.4-1.08-.89-2.18-1.77-3.28-2.65-.3.02-.6.04-.91.04,0,.29,0,.59,0,.88Z"/><path class="cls-2" d="m42.87,42.79s0,.05.02.14c-.21-.28-.44-.5-.69-.64,0,1.36-.02,2.73-.02,4.09.56-.02,1.13-.22,1.6-.59,1.27-1.01,1.37-2.84.65-4.19-.52-.97-1.33-1.52-2.21-1.77,0,.77-.01,1.53-.01,2.3.29.14.53.36.68.65Z"/><path class="cls-2" d="m42.53,34.32c.36-.6.36-1.27-.02-1.9-.07-.13-.17-.23-.26-.34,0,.86,0,1.72-.02,2.59.11-.1.21-.21.29-.34Z"/><path class="cls-2" d="m42.45,39.6c2.53.87,3.34,4.04,1.93,5.85-.56.72-1.39,1.1-2.21,1.13,0,.15,0,.3,0,.45,1.8-.01,3.48-1.5,3.57-3.66.1-2.41-1.45-4.33-3.53-4.88,0,.35,0,.7,0,1.04.08.02.16.04.24.07Z"/><path class="cls-2" d="m36.27,85.65c-.23-.31-.23-.67,0-.97.18-.25.48-.31.79-.16.35.17.47.42.4.82,0,.04-.01.09-.02.16.56,0,1.04-.18,1.5-.45.12-.07.22-.16.33-.23v-12.5c-1.07,1.18-2.87,1.49-4.51.6-2.22-1.2-2.86-3.94-1.84-6.22,1.03-2.3,3.13-3.5,5.58-3.22.27.03.52.08.77.13v-4.85c-.33-.47-.65-.94-.99-1.4-.65-.89-1.59-1.27-2.67-1.26-.87,0-1.66.22-2.28.88-.77.82-.9,2.2-.25,3.13.41.58,1.01.81,1.7.7.52-.08.9-.48,1.02-1.05.13-.61-.34-1.22-.9-1.1-.18.04-.37.23-.47.4-.06.1.03.32.11.45.05.07.26.1.34.04.09-.07.11-.24.19-.45.02.19.09.35.03.43-.08.12-.25.25-.38.24-.16-.01-.37-.12-.45-.26-.27-.43.03-1,.53-1.09.8-.15,1.44.68,1.2,1.56-.19.71-.89,1.17-1.65,1.09-1.19-.13-1.96-1.12-1.91-2.46.05-1.25.78-2.21,1.98-2.58,1.04-.32,2.04-.26,3,.32.03.02.06.02.15.04-.25-.38-.49-.71-.7-1.07-.73-1.22-1.53-2.41-2.15-3.69-1.11-2.29-1.49-4.73-1.04-7.38-.02.56-.04,1.02-.05,1.47-.03,2.1.57,4.04,1.5,5.88.77,1.51,1.69,2.92,2.64,4.31.5.72.99,1.44,1.49,2.16v-1.05c-1.13-1.45-2.19-2.96-3.04-4.61-.79-1.55-1.4-3.16-1.72-4.88-.36-1.94-.35-3.87.43-5.71.81-1.92,2.45-3.25,4.34-3.73v-2.99c-.18-.09-.36-.2-.52-.37-.82-.88-.68-2.25.34-3.08.06-.05.12-.08.18-.13v-.71c-.19,0-.39-.02-.58-.04-.19.14-.35.25-.5.38-3.51,2.88-7,5.79-10.55,8.64-.86.69-1.02,1.47-.86,2.43.55,3.33,1.1,6.66,1.63,9.99.83,5.28,1.64,10.57,2.47,15.85.85,5.38,1.72,10.75,2.56,16.13.44,2.83.42,2.83,2.56,4.82.87.81,1.76,1.6,2.64,2.4.15.14.32.26.63.51v-6.48c-.6.38-1.28.61-2.02.65-.4.03-.73-.11-.98-.45Z"/><path class="cls-2" d="m38.76,32.34c-.4.62-.43,1.29-.08,1.92.14.26.35.46.59.58v-3.11c-.19.18-.36.38-.5.61Z"/><path class="cls-2" d="m37.37,63.9c-2.43.21-4.13,2.05-4.3,4.58-.16,2.42,1.88,4.45,4.19,4.15.84-.11,1.54-.62,2-1.29v-3.36c-.13-.17-.27-.33-.37-.48.13.05.25.14.37.25v-1.81c-.09-.03-.17-.08-.26-.11-1.68-.55-3.51.21-3.99,2.17-.42,1.72.97,2.94,2.15,2.75.75-.12,1.25-.83,1.12-1.6-.09-.54-.72-.9-1.14-.66-.06.04-.12.08-.17.13-.23.24-.24.58,0,.76.28.21.44.02.59-.26.04.32-.07.46-.32.49-.3.05-.6-.15-.66-.45-.07-.32.01-.6.27-.81.29-.24.62-.32.98-.15.81.38,1.04,1.47.46,2.17-.86,1.03-2.06.86-2.94-.04-1.12-1.15-.67-2.86.09-3.78.93-1.12,2.36-1.48,3.82-.94,0,0,.02,0,.02.01v-1.54c-.6-.16-1.23-.23-1.89-.17Z"/><path class="cls-2" d="m39.22,43.08c-.13.35-.17.75-.16,1.13,0,.31.08.62.21.91v-2.13s-.03.06-.04.09Z"/><path class="cls-2" d="m35.33,43.46c-.47,2.83.08,5.45,1.27,7.99.75,1.59,1.68,3.07,2.66,4.5v-9.66c-.07-.11-.15-.21-.21-.33-.64-1.18-.53-2.55.21-3.49v-2.37c-.25.12-.48.26-.69.42-.92.73-1.55,1.68-1.89,2.83-.03.1-.07.2-.17.3.02-.17.03-.35.07-.52.31-1.51,1.37-2.72,2.68-3.32v-1.16c-2.14.7-3.54,2.43-3.94,4.82Z"/><path class="cls-2" d="m56.35,22.45c.75-1.21,1.43-2.45,2.06-3.71-.35.17-.7.34-1.05.52-.99,1.88-2.15,3.66-3.62,5.24-1.41,1.51-3,2.79-4.83,3.74-.39.2-.79.38-1.19.56-.02.03-.03.06-.05.09-.13.18-.28.34-.43.5.09.06.18.13.27.19,2.04-.93,3.95-2.09,5.76-3.44,1.34-.99,2.23-2.32,3.07-3.68Z"/><path class="cls-2" d="m53.94,23.38s-.02.07.03.14c.34-.42.69-.83,1.01-1.26.65-.87,1.22-1.78,1.75-2.71-.77.38-1.55.76-2.32,1.14.02.88-.13,1.78-.47,2.68Z"/><path class="cls-2" d="m77.81,9.19c.5,2.68-1.18,5.45-3.95,6.18-1.68.44-3.14,0-4.23-1.32-.17-.2-.3-.41-.42-.62-3.31,1.63-6.63,3.26-9.96,4.9-.22.44-.45.88-.67,1.32-.03.06-.06.12-.12.23,1.08-.83,2.05-1.69,3.27-2.16.94-.36,1.92-.55,2.91-.32,2.51.57,3.53,3.31,2.03,5.46-.81,1.16-1.9,1.75-3.32,1.58-.97-.12-1.9-.99-2.08-1.93-.19-1,.23-1.95,1.12-2.51,1.15-.73,2.34.05,2.48.77-.21-.22-.42-.53-.71-.72-.63-.41-1.5-.25-2.1.33-1.09,1.04-.83,2.93.46,3.63,1.63.88,3.52-.1,4.28-1.65,1.05-2.13-.44-4.45-2.35-4.81-1.21-.23-2.36.08-3.43.72-1.53.91-2.57,2.28-3.5,3.73-.79,1.21-1.6,2.4-2.7,3.36-1.3,1.14-2.71,2.13-4.26,2.9-.97.49-1.97.94-2.96,1.4,3.02,2.21,6.04,4.42,9.07,6.61,1.13.81,1.17.8,2.22-.11,2.49-2.17,4.95-4.36,7.43-6.54,3.59-3.17,7.17-6.35,10.78-9.49.91-.8,1.49-1.71,1.8-2.85.68-2.52,1.42-5.01,2.13-7.52.2-.7.38-1.42.56-2.12-.09-.06-.17-.11-.26-.16-1.18.58-2.35,1.16-3.53,1.73Z"/><path class="cls-2" d="m46.93,28.65c-.37-.16-.51-.39-.47-.77.04-.33.24-.55.55-.57.37-.03.67.16.81.52.06.15.08.3.07.44.37-.2.73-.41,1.08-.63,1.11-.7,2.19-1.46,3.18-2.32,1.02-.88,1.46-2.12,1.67-3.41.05-.32.08-.64.09-.96-.5.25-1.01.5-1.51.74-.17.99-.68,1.88-1.57,2.64-.18.15-.37.28-.59.35.36-.4.76-.77,1.07-1.19.38-.52.63-1.07.76-1.64-2.98,1.47-5.97,2.94-8.97,4.42,1.29.97,2.41,1.81,3.52,2.63.14-.07.28-.14.42-.21-.03-.02-.07-.04-.1-.05Z"/><path class="cls-2" d="m72.36,14.23c-.91-.12-1.65-.65-2.08-1.34-.14.07-.27.13-.41.2.91,1.57,3.05,2.29,4.98,1.27,1.95-1.03,2.85-3.05,2.55-4.97-.31.15-.62.3-.93.46.35,2.53-1.9,4.69-4.11,4.39Z"/><path class="cls-2" d="m73.78,11.67c.08-.2.13-.4.17-.59-1.17.57-2.34,1.15-3.51,1.72.3.47.76.85,1.3,1.07,1.51.59,3.14-.24,3.95-1.55.48-.78.62-1.59.51-2.36-.7.34-1.4.69-2.1,1.03-.03.2-.09.4-.21.58-.01.02-.04.03-.11.08Z"/><path class="cls-2" d="m9.86,13.27c-1.76.17-3.5-1.22-3.9-3.07-.33-.16-.65-.32-.98-.48.17,1.42.99,2.77,2.41,3.58,1.51.87,3.19.63,4.29-.29-.16-.08-.32-.16-.48-.24-.39.26-.84.44-1.34.49Z"/><path class="cls-2" d="m26.8,21.86c.31.44.64.85.96,1.28.05-.07.04-.11.03-.14-.25-.76-.38-1.51-.38-2.25-.63-.31-1.25-.62-1.88-.92.39.69.8,1.37,1.27,2.03Z"/><path class="cls-2" d="m23.44,19.37c-.06-.11-.09-.17-.12-.23-.08-.17-.16-.34-.24-.51-.49-.24-.97-.48-1.46-.72.62.45,1.2.96,1.82,1.46Z"/><path class="cls-2" d="m10.48,12.94c.19-.07.37-.15.53-.26-1.59-.78-3.18-1.56-4.76-2.34.08.31.2.62.37.93.75,1.32,2.34,2.2,3.85,1.68Z"/><path class="cls-2" d="m31.41,24.43c-.22-.08-.41-.21-.58-.37-.75-.69-1.2-1.46-1.39-2.31l-1.54-.76c.01.18.03.36.05.55.17,1.28.56,2.52,1.54,3.43.95.88,1.99,1.68,3.07,2.41.3.2.6.39.91.57,0-.15.02-.31.09-.47.15-.35.46-.53.83-.49.31.03.51.26.53.6.03.38-.13.62-.5.76-.04.02-.08.04-.14.06.26.14.52.28.78.41.69-.51,1.39-1.02,2.08-1.53,1.39-1.04,1.35-1.1-.24-1.88-2.37-1.17-4.74-2.33-7.1-3.5.13.44.31.87.59,1.29.3.43.68.81,1.02,1.22Z"/><path class="cls-2" d="m33.67,28.56s-.02-.03-.02-.05c-.35-.18-.7-.34-1.04-.54-1.79-1.01-3.32-2.33-4.66-3.88-1.21-1.4-2.19-2.95-3.03-4.58-.35-.17-.69-.34-1.04-.51.48,1.01,1,2,1.56,2.97.79,1.38,1.63,2.72,2.92,3.75,1.82,1.45,3.75,2.72,5.84,3.74.06-.04.12-.09.17-.13-.26-.23-.49-.49-.7-.79Z"/><path class="cls-2" d="m26.85,24.89c-1.05-.99-1.82-2.19-2.56-3.42-.88-1.46-1.86-2.85-3.34-3.81-1.04-.67-2.16-1.03-3.37-.84-1.9.29-3.45,2.52-2.48,4.67.71,1.56,2.54,2.6,4.18,1.79,1.3-.64,1.62-2.5.57-3.57-.58-.59-1.44-.78-2.07-.4-.3.18-.51.48-.73.69.16-.71,1.37-1.43,2.48-.67.86.59,1.25,1.54,1.03,2.53-.21.93-1.15,1.76-2.12,1.83-1.41.11-2.47-.51-3.23-1.68-1.42-2.18-.32-4.85,2.19-5.32.67-.13,1.33-.06,1.97.12-2.33-1.14-4.65-2.29-6.98-3.43-1.1,1.11-2.49,1.44-4.05.97-2.24-.68-3.69-2.69-3.82-4.84-1.1-.54-2.19-1.08-3.29-1.62-.34-.17-.72-.29-1.23-.49H0c.09.43.13.66.2.89.82,2.85,1.7,5.68,2.45,8.55.35,1.34,1,2.41,2.06,3.34,6.16,5.4,12.28,10.83,18.4,16.26.57.5,1.03.43,1.58.02,3.13-2.3,6.28-4.6,9.41-6.9-1.05-.53-2.1-1.06-3.13-1.62-1.5-.82-2.87-1.85-4.12-3.03Z"/><path class="cls-2" d="m46.32,18.95c.43-1.55,2.14-2.02,3.31-1.83.59.1,1.11.34,1.54.69.47-.24.94-.48,1.4-.72-1.44-1.66-3.69-2.07-5.8-1.02-1.9.95-2.69,3.2-1.9,4.98.48-.25.96-.49,1.44-.74-.13-.41-.13-.87.01-1.36Z"/><path class="cls-2" d="m48.17,17.51c-1.39.42-1.87,1.71-1.58,2.67.44-.23.88-.45,1.32-.68.01-.02.02-.04.04-.05.15-.14.32-.21.5-.22.81-.42,1.63-.84,2.44-1.26-.71-.55-1.65-.78-2.72-.46Z"/><path class="cls-2" d="m48.24,15.03c1.94-.21,3.63.48,4.76,1.84,2.09-1.08,4.17-2.15,6.25-3.22-.02-.56-.18-1.11-.5-1.64-.44-.74-1.02-1.32-1.91-1.53-1.1-.25-2.36.33-2.83,1.37-.29.65-.19,1.28.25,1.82.34.41.87.53,1.42.36.6-.19.88-.91.5-1.33-.12-.14-.38-.2-.58-.2-.11,0-.27.19-.33.32-.04.08.05.28.13.31.1.04.26-.03.48-.06-.15.11-.26.25-.35.24-.14-.01-.34-.09-.4-.2-.07-.14-.08-.38,0-.52.24-.45.88-.48,1.21-.09.53.62.14,1.59-.74,1.82-.71.19-1.46-.18-1.77-.87-.49-1.09-.02-2.26,1.17-2.89,1.1-.58,2.3-.44,3.23.41.76.7,1.2,1.55,1.22,2.6.09-.05.19-.1.28-.14.11-.23.22-.48.34-.69.69-1.24,1.31-2.53,2.1-3.71,1.42-2.12,3.33-3.68,5.85-4.62-.49.27-.9.48-1.29.7-1.83,1.04-3.2,2.53-4.32,4.27-.78,1.2-1.43,2.46-2.05,3.74.26-.13.52-.27.77-.4.34-.68.71-1.35,1.13-1.99.94-1.46,2.02-2.81,3.35-3.95,1.5-1.29,3.17-2.25,5.15-2.51,1.67-.22,3.29.24,4.57,1.15,1.71-.88,3.43-1.77,5.14-2.65l-.1-.29c-.26-.09-.51-.19-.77-.27-1.92-.58-3.86-1.09-5.75-1.75-1.44-.51-2.77-.42-4.18.08-6.78,2.41-13.57,4.76-20.36,7.14-1.82.63-3.64,1.29-5.46,1.92-.59.21-.85.54-.85,1.18,0,2.71-.07,5.41-.08,8.12,0,.96.09,1.92.15,3.13.38-.2.76-.39,1.15-.59-.23-.49-.37-1.04-.39-1.65-.08-2.52,1.96-4.46,4.44-4.73Z"/><path class="cls-2" d="m70.31,6.53c-.1.03-.21.04-.34,0,.16-.07.32-.15.48-.21,1-.34,2.05-.3,2.99.02.43-.22.86-.44,1.29-.66-1.53-.89-3.35-.98-5.21-.27-2.67,1.02-4.67,2.82-6.26,5.13-.35.51-.67,1.03-.98,1.56,3.6-1.85,7.2-3.71,10.79-5.56-.9-.24-1.82-.24-2.76-.01Z"/><path class="cls-2" d="m33.84,19.33c.08.08.12.17.15.27.38.2.76.39,1.15.59.38-.94-.04-2.31-1.44-2.78-1.16-.39-2.2-.12-2.93.53.77.39,1.53.79,2.3,1.18.29-.09.56-.01.79.21Z"/><path class="cls-2" d="m35.11,16.05c-2.16-1.17-4.53-.77-6,1.04.45.23.91.47,1.36.7.48-.44,1.08-.72,1.77-.81,1.17-.15,2.84.38,3.22,1.93.13.52.1,1.01-.07,1.42.47.24.94.49,1.42.73.85-1.74.15-4-1.71-5.01Z"/><path class="cls-2" d="m12.01,5.53c.16.06.31.15.47.22-.13.03-.23.01-.34-.02-1.14-.33-2.26-.31-3.36.08-.27.1-.54.23-.79.4.77.4,1.55.8,2.32,1.2.95,0,1.87.46,2.5,1.29,2.55,1.31,5.09,2.62,7.64,3.94-.45-.91-.92-1.81-1.47-2.67-1.5-2.34-3.42-4.19-6.03-5.3-2.28-.97-4.53-.67-6.27.87.35.18.71.36,1.06.55,1.21-.82,2.81-1.1,4.27-.55Z"/><path class="cls-2" d="m11.8,3.46c1.95.33,3.57,1.34,5.01,2.67,1.27,1.18,2.3,2.55,3.18,4.03.57.97,1.05,1.97,1.49,3,.24.12.48.25.72.37-.03-.07-.06-.14-.09-.21-.66-1.53-1.36-3.05-2.22-4.49-1.06-1.76-2.36-3.28-4.14-4.38-.38-.24-.78-.46-1.26-.74,2.45,1.03,4.3,2.64,5.63,4.78.74,1.2,1.32,2.49,1.96,3.75.18.36.34.74.52,1.15.03-.09.05-.12.05-.15.02-1.11.5-1.98,1.31-2.67.95-.8,2.14-.9,3.21-.29,1.15.66,1.58,1.83,1.06,2.9-.33.68-1.08,1.01-1.78.8-.86-.27-1.22-1.24-.68-1.83.34-.37.98-.32,1.2.13.07.14.05.37-.03.51-.06.11-.26.18-.4.19-.09,0-.2-.14-.34-.25.22.04.37.12.48.08.08-.03.17-.23.14-.3-.06-.13-.21-.33-.32-.33-.2,0-.46.05-.58.18-.39.41-.13,1.12.45,1.33.54.2,1.07.1,1.42-.3.46-.52.58-1.13.31-1.78-.43-1.04-1.66-1.66-2.75-1.45-.89.17-1.48.72-1.94,1.44-.46.71-.65,1.49-.51,2.29,1.94,1,3.88,2,5.82,3,1.16-1.5,2.95-2.22,4.99-1.92,2.45.36,4.41,2.35,4.24,4.84-.04.6-.2,1.14-.44,1.61.3.16.6.31.91.47h0c.04-.33.08-.49.08-.66.05-3.43.05-6.86.15-10.29.02-.82-.27-1.21-1.04-1.47-3.01-1.03-6.01-2.09-9.01-3.14C22.76,4.29,16.94,2.26,11.13.22c-.75-.26-1.45-.29-2.21-.06-2.16.66-4.33,1.27-6.49,1.93-.36.1-.7.28-1.05.42-.02.09-.03.17-.05.26,1.62.84,3.24,1.67,4.86,2.51,1.4-1.44,3.47-2.18,5.6-1.82Z"/></svg>